<svg aria-hidden="true" xmlns="http://www.w3.org/2000/svg" width="24" height="24" viewBox="0 0 24 24">
  <path class="nav__list-img" d="m8.72 5.84.13-.56-1.02-.2-.1.47a4.44 4.44 0 0 0-1.09-.02l.05-.73h1.14v-.97h-1c.04-.24.09-.4.13-.53l-1-.3c-.07.25-.13.48-.2.83H4.64v.97h1.01c-.02.31-.04.64-.04.96-1.12.41-1.6 1.2-1.6 1.9 0 .85.66 1.59 1.7 1.49 1.31-.12 2.18-1.1 2.69-2.3.52.3.74.8.55 1.28-.19.43-.73.85-1.76.83V10c1.15.02 2.27-.42 2.71-1.47.43-1.03-.06-2.15-1.17-2.69zm-1.34.71a3.5 3.5 0 0 1-.65 1c-.04-.3-.07-.63-.08-.98.24-.03.5-.03.73-.02zm-1.76.34c.03.44.08.84.15 1.2-.93.17-.96-.74-.15-1.2zM8 13c0-.34.03-.68.1-1H3a1 1 0 0 1-1-1V3a1 1 0 0 1 1-1h8a1 1 0 0 1 1 1v5.1c.32-.07.66-.1 1-.1h1V3a3 3 0 0 0-3-3H3a3 3 0 0 0-3 3v8a3 3 0 0 0 3 3h5v-1zm13-3h-8a3 3 0 0 0-3 3v8a3 3 0 0 0 3 3h8a3 3 0 0 0 3-3v-8a3 3 0 0 0-3-3zm-1.86 11-.66-1.85h-3L14.8 21h-1.66l3.04-8h1.6l3.06 8h-1.71zm-2.16-6.14 1.05 3.02h-2.1l1.05-3.02z"/>
</svg>