<svg viewBox="0 0 236 14" fill="none" xmlns="http://www.w3.org/2000/svg">
	<path d="M3.39648 2.82812C14.864 2.82812 14.864 10.5563 26.3315 10.5563C37.7991 10.5563 37.7991 2.82813 49.2666 2.82813C60.7341 2.82813 60.7341 10.5563 72.1748 10.5563C83.6427 10.5563 83.6427 2.82813 95.083 2.82813C106.551 2.82813 106.551 10.5563 117.991 10.5563C129.459 10.5563 129.459 2.82813 140.926 2.82813C152.394 2.82813 152.394 10.5563 163.861 10.5563C175.328 10.5563 175.328 2.82813 186.796 2.82813C198.264 2.82813 198.264 10.5563 209.732 10.5563C221.199 10.5563 221.199 2.82813 232.666 2.82813" stroke="#2F445D" stroke-width="5" stroke-miterlimit="10" stroke-linecap="round"/>
</svg>