<svg fill="none" xmlns="http://www.w3.org/2000/svg" viewBox="0 0 85 85">
  <g clip-path="url(#clip0)">
    <path fill="#4A148C" d="M0 0h85v85H0z"/>
    <path d="M58.51 21.271L20.183 31.84c-.847.233-1.577.756-2.029 1.454-.452.697-.59 1.512-.382 2.265.207.753.743 1.382 1.489 1.75.746.366 1.64.441 2.488.208l15.97-4.403 6.05 21.942-7.063 22.625a2.669 2.669 0 00.28 2.25c.423.667 1.133 1.14 1.974 1.313.84.174 1.744.033 2.51-.39.766-.423 1.333-1.095 1.576-1.866l5.693-18.369 14.286 12.8c.604.537 1.435.823 2.31.794a3.693 3.693 0 002.356-.951c.633-.58 1-1.35 1.02-2.14a2.669 2.669 0 00-.91-2.075L50.155 53.294l-6.05-21.942 15.97-4.404c.847-.233 1.577-.756 2.03-1.454.451-.697.589-1.512.381-2.265-.207-.753-.743-1.382-1.489-1.75-.745-.366-1.64-.441-2.487-.208zM44.128 11.49a9.277 9.277 0 11-17.886 4.931 9.277 9.277 0 1117.886-4.932z" fill="#fff"/>
  </g>
  <defs>
    <clipPath id="clip0">
      <path fill="#fff" d="M0 0h85v85H0z"/>
    </clipPath>
  </defs>
</svg>
