<svg width="16" height="16" viewBox="0 0 16 16" fill="none" xmlns="http://www.w3.org/2000/svg">
	<rect x="0.289062" width="16" height="16" rx="8" fill="#D59DB8"/>
	<path d="M9.38855 9.6994C9.79706 10.2521 10.1996 10.6816 10.5961 10.988C10.9925 11.2884 11.323 11.4386 11.5873 11.4386C11.9177 11.4386 12.2721 11.3755 12.6506 11.2493V12.547C12.3502 12.7032 11.9447 12.7812 11.4341 12.7812C10.8874 12.7812 10.3618 12.604 9.85713 12.2496C9.35851 11.8951 8.84487 11.3725 8.31621 10.6816C7.76352 11.3905 7.23186 11.9192 6.72122 12.2676C6.21659 12.61 5.69694 12.7812 5.16227 12.7812C4.66365 12.7812 4.25214 12.7032 3.92773 12.547V11.2493C4.01184 11.2914 4.16503 11.3334 4.38731 11.3755C4.60959 11.4175 4.78681 11.4386 4.91897 11.4386C5.2614 11.4386 5.61584 11.3004 5.9823 11.0241C6.35476 10.7417 6.76327 10.3002 7.20783 9.6994C6.4629 8.91242 5.91622 8.19152 5.56778 7.53671C5.22535 6.87588 5.05414 6.24509 5.05414 5.64435C5.05414 4.74322 5.35451 4.0043 5.95526 3.42758C6.55601 2.85086 7.343 2.5625 8.31621 2.5625C9.28342 2.5625 10.0674 2.85086 10.6681 3.42758C11.2689 3.99829 11.5693 4.73721 11.5693 5.64435C11.5693 6.80379 10.8424 8.15548 9.38855 9.6994Z" fill="#2F445D"/>
	<path d="M14.5641 8.23266C13.569 8.23266 12.7891 7.4538 12.7891 6.37951C12.7891 5.22466 13.569 4.47266 14.5641 4.47266C15.5053 4.47266 16.3391 5.22466 16.3391 6.37951C16.3391 7.4538 15.5053 8.23266 14.5641 8.23266Z" fill="#2F445D"/>
	<path d="M2.01465 8.23266C1.0199 8.23266 0.240234 7.45299 0.240234 6.37759C0.240234 5.22153 1.0199 4.46875 2.01465 4.46875C2.95563 4.46875 3.78906 5.22153 3.78906 6.37759C3.78906 7.45299 2.95563 8.23266 2.01465 8.23266Z" fill="#2F445D"/>
</svg>