<svg aria-hidden="true" width="30" height="25" xmlns="http://www.w3.org/2000/svg"><path class="nav__list-img" d="M9.434 25c11.321 0 17.513-9.62 17.513-17.96 0-.274 0-.546-.018-.817A12.69 12.69 0 0030 2.956c-1.123.51-2.315.845-3.535.993A6.31 6.31 0 0029.17.458a12.153 12.153 0 01-3.909 1.532A6.092 6.092 0 0020.774 0c-3.38 0-6.16 2.852-6.16 6.318 0 .481.053.96.16 1.429-4.947-.254-9.562-2.654-12.686-6.595C.464 4.02 1.304 7.736 3.994 9.578c-.98-.03-1.938-.3-2.794-.79v.08c0 2.993 2.077 5.595 4.938 6.188a5.997 5.997 0 01-2.78.108c.805 2.565 3.125 4.333 5.751 4.384a12.159 12.159 0 01-7.644 2.708c-.49-.001-.979-.032-1.465-.091a17.112 17.112 0 009.434 2.83"/></svg>