<svg aria-hidden="true" width="25" height="25" viewBox="0 0 25 25" xmlns="http://www.w3.org/2000/svg">
	<path class="nav__list-img" d="M3.125 18.75C2.50693 18.75 1.90275 18.9333 1.38884 19.2767C0.874941 19.62 0.474402 20.1081 0.237878 20.6791C0.00135402 21.2501 -0.0605314 21.8785 0.0600474 22.4847C0.180626 23.0909 0.478254 23.6477 0.915293 24.0847C1.35233 24.5218 1.90915 24.8194 2.51534 24.94C3.12153 25.0605 3.74987 24.9987 4.32089 24.7621C4.89191 24.5256 5.37996 24.1251 5.72334 23.6112C6.06672 23.0973 6.25 22.4931 6.25 21.875C6.24918 21.0465 5.91968 20.2521 5.3338 19.6662C4.74793 19.0803 3.95355 18.7508 3.125 18.75Z M3.125 9.375C2.7106 9.375 2.31317 9.53962 2.02015 9.83265C1.72712 10.1257 1.5625 10.5231 1.5625 10.9375C1.5625 11.3519 1.72712 11.7493 2.02015 12.0424C2.31317 12.3354 2.7106 12.5 3.125 12.5C5.61057 12.5027 7.99357 13.4913 9.75113 15.2489C11.5087 17.0064 12.4973 19.3894 12.5 21.875C12.5 22.2894 12.6646 22.6868 12.9576 22.9799C13.2507 23.2729 13.6481 23.4375 14.0625 23.4375C14.4769 23.4375 14.8743 23.2729 15.1674 22.9799C15.4604 22.6868 15.625 22.2894 15.625 21.875C15.6215 18.5609 14.3034 15.3835 11.9599 13.0401C9.6165 10.6966 6.43912 9.37853 3.125 9.375Z M3.125 0C2.7106 0 2.31317 0.16462 2.02015 0.457646C1.72712 0.750671 1.5625 1.1481 1.5625 1.5625C1.5625 1.9769 1.72712 2.37433 2.02015 2.66735C2.31317 2.96038 2.7106 3.125 3.125 3.125C8.09614 3.13043 12.8621 5.10762 16.3773 8.62275C19.8924 12.1379 21.8696 16.9039 21.875 21.875C21.875 22.2894 22.0396 22.6868 22.3326 22.9799C22.6257 23.2729 23.0231 23.4375 23.4375 23.4375C23.8519 23.4375 24.2493 23.2729 24.5424 22.9799C24.8354 22.6868 25 22.2894 25 21.875C24.9932 16.0755 22.6864 10.5154 18.5855 6.41451C14.4846 2.31361 8.92454 0.00676119 3.125 0Z"/>
</svg>
