<svg class="logo__image" aria-hidden="true" viewBox="0 0 85 85" xmlns="http://www.w3.org/2000/svg">
	<path fill-rule="evenodd" clip-rule="evenodd" d="M42.5 85C65.972 85 85 65.972 85 42.5S65.972 0 42.5 0 0 19.028 0 42.5 19.028 85 42.5 85Zm-3.283-52.75c2.608-.56 4.284-3.06 3.742-5.588-.54-2.527-3.094-4.123-5.702-3.564-2.608.559-4.283 3.06-3.742 5.587.541 2.527 3.094 4.123 5.702 3.564Zm-9.361 4.056 20.238-4.335a1.876 1.876 0 0 1 1.283.17c.375.204.632.535.714.92a1.39 1.39 0 0 1-.274 1.133c-.258.34-.654.585-1.101.681l-8.433 1.806 2.405 11.227 8.627 8.405c.295.287.44.672.403 1.07-.037.399-.253.777-.601 1.053a1.978 1.978 0 0 1-1.254.419 1.719 1.719 0 0 1-1.172-.461l-6.983-6.828-3.568 9.118a1.72 1.72 0 0 1-.88.9 1.978 1.978 0 0 1-1.315.133c-.43-.11-.783-.367-.98-.715a1.311 1.311 0 0 1-.07-1.141l4.42-11.23-2.404-11.227-8.433 1.806a1.875 1.875 0 0 1-1.284-.17 1.39 1.39 0 0 1-.713-.92 1.39 1.39 0 0 1 .273-1.134c.258-.34.655-.585 1.102-.68ZM10.04 53.543l-.895-4.182 15.183-13.39.913 4.264-11.71 10.205.07.322 14.853 4.473.922 4.304-19.335-5.996Zm61.007-15.086-11.71 10.205.914 4.263 15.183-13.389-.896-4.183-19.335-5.995.922 4.303 14.853 4.474.069.322Z"/>
</svg>
