<svg class="logo__image" aria-hidden="true" width="85" height="85" viewBox="0 0 85 85" xmlns="http://www.w3.org/2000/svg">
	<path class="logo__image-bg" d="M85 42.5C85 65.9721 65.9721 85 42.5 85C19.0279 85 0 65.9721 0 42.5C0 19.0279 19.0279 0 42.5 0C65.9721 0 85 19.0279 85 42.5Z"/>
	<path d="M10.0718 55.6814L9.08167 52.2898L23.8409 36.5254L24.8681 40.0441L12.6266 52.8652L12.7256 53.2044L29.9423 57.4257L30.9943 61.0292L10.0718 55.6814ZM61.8823 48.1935L74.1237 35.3723L74.0247 35.0332L56.808 30.8118L55.756 27.2083L76.6786 32.5562L77.6687 35.9477L62.9095 51.7122L61.8823 48.1935ZM49.7127 30.9355L30.2836 36.6075C29.8542 36.7328 29.4906 37.0184 29.2729 37.4013C29.0551 37.7842 29.001 38.233 29.1225 38.6492C29.244 39.0653 29.5311 39.4146 29.9206 39.6202C30.3102 39.8259 30.7703 39.871 31.1997 39.7456L39.2952 37.3823L42.836 49.5112L39.6711 61.963C39.5621 62.3877 39.6301 62.8344 39.8601 63.2047C40.0902 63.575 40.4634 63.8387 40.8977 63.9377C41.3321 64.0367 41.7919 63.963 42.1761 63.7326C42.5603 63.5023 42.8374 63.1343 42.9464 62.7096L45.4949 52.6003L53.0728 59.7194C53.3932 60.0187 53.8247 60.1798 54.2725 60.1673C54.7203 60.1547 55.1476 59.9695 55.4604 59.6524C55.7733 59.3352 55.946 58.9122 55.9407 58.4762C55.9354 58.0403 55.7524 57.6272 55.432 57.3279L46.0742 48.5658L42.5333 36.4369L50.6288 34.0736C51.0582 33.9483 51.4218 33.6627 51.6395 33.2798C51.8573 32.8969 51.9113 32.448 51.7899 32.0319C51.6684 31.6157 51.3813 31.2664 50.9917 31.0608C50.6022 30.8552 50.1421 30.8101 49.7127 30.9355ZM39.082 30.6333C40.0427 30.3529 40.9012 29.8027 41.549 29.0522C42.1968 28.3018 42.6047 27.3849 42.7213 26.4174C42.8378 25.45 42.6577 24.4754 42.2037 23.6171C41.7497 22.7587 41.0422 22.055 40.1708 21.595C39.2993 21.135 38.3029 20.9393 37.3077 21.0327C36.3124 21.1262 35.363 21.5045 34.5795 22.1199C33.7959 22.7353 33.2134 23.5601 32.9057 24.49C32.598 25.4199 32.5788 26.4131 32.8505 27.3441C33.215 28.5926 34.0763 29.6405 35.2449 30.2573C36.4135 30.8741 37.7938 31.0094 39.082 30.6333ZM37.2498 24.3571C37.57 24.2636 37.9099 24.2642 38.2265 24.3589C38.5431 24.4536 38.8221 24.6381 39.0284 24.889C39.2346 25.1399 39.3588 25.446 39.3852 25.7687C39.4116 26.0913 39.339 26.4159 39.1766 26.7014C39.0142 26.9869 38.7694 27.2206 38.473 27.3728C38.1766 27.5251 37.8419 27.589 37.5114 27.5566C37.1809 27.5243 36.8693 27.397 36.6161 27.1909C36.3629 26.9848 36.1793 26.7091 36.0887 26.3988C35.9673 25.9827 36.0213 25.5338 36.2391 25.1509C36.4568 24.768 36.8204 24.4824 37.2498 24.3571Z" fill="#E3E3E3"/>
</svg>
