<svg class="logo__image" aria-hidden="true" width="85" height="85" viewBox="0 0 85 85" xmlns="http://www.w3.org/2000/svg">
	<path class="logo__image-bg" d="M85 42.5C85 65.972 65.972 85 42.5 85S0 65.972 0 42.5 19.028 0 42.5 0 85 19.028 85 42.5z"/>
	<path d="M51.655 29.858l-22.643 7.074c-.5.157-.926.482-1.181.906a1.656 1.656 0 00-.184 1.355c.138.443.47.806.922 1.009.451.202.986.229 1.487.072l9.434-2.947 4.036 12.917-3.769 13.594a1.58 1.58 0 00.212 1.33c.265.39.697.655 1.202.741a2.21 2.21 0 001.488-.284c.449-.267.774-.678.904-1.142l3.035-11.036 8.766 7.313c.371.307.872.46 1.393.424a2.21 2.21 0 001.386-.614c.366-.357.57-.822.566-1.293a1.582 1.582 0 00-.583-1.214L47.3 49.065l-4.036-12.917L52.7 33.2c.5-.156.925-.482 1.181-.906.256-.424.322-.91.184-1.354a1.656 1.656 0 00-.922-1.009 2.114 2.114 0 00-1.487-.073zm-8.765-5.516c.908 2.907-.72 6.003-3.639 6.915-2.918.912-6.02-.707-6.928-3.614-.908-2.908.72-6.004 3.639-6.916 2.918-.911 6.02.707 6.928 3.615zM10.309 57.934l-1.356-4.34 14.885-15.687 1.382 4.423L13.73 54.3l.104.335 16.248 3.259 1.395 4.465-21.168-4.425zm52.034-10.072l11.49-11.971-.103-.334-16.25-3.26-1.394-4.464 21.168 4.424 1.356 4.34-14.885 15.688-1.382-4.423z" fill="#E3E3E3"/>
</svg>
