<svg class="logo__image" aria-hidden="true" width="85" height="85" viewBox="0 0 85 85" fill="none" xmlns="http://www.w3.org/2000/svg">
	<path class="logo__image-bg" d="M85 42.5C85 65.9721 65.9721 85 42.5 85C19.0279 85 0 65.9721 0 42.5C0 19.0279 19.0279 0 42.5 0C65.9721 0 85 19.0279 85 42.5Z"/>
	<path d="M50.0936 31.9705L29.8559 36.3055C29.4086 36.4013 29.0125 36.6462 28.7545 36.9863C28.4966 37.3264 28.398 37.7339 28.4805 38.119C28.563 38.5042 28.8199 38.8356 29.1945 39.0402C29.5691 39.2448 30.0308 39.3059 30.4781 39.2101L38.9105 37.4039L41.3152 48.6304L36.8946 59.8606C36.7427 60.2436 36.7681 60.6543 36.965 61.0024C37.162 61.3505 37.5144 61.6074 37.9448 61.7166C38.3752 61.8259 38.8483 61.7785 39.26 61.5849C39.6717 61.3913 39.9883 61.0674 40.1402 60.6844L43.7078 51.5659L50.6913 58.3939C50.9867 58.6811 51.4082 58.8469 51.8631 58.8549C52.318 58.8629 52.769 58.7123 53.1168 58.4364C53.4647 58.1604 53.681 57.7817 53.7181 57.3835C53.7552 56.9853 53.6101 56.6002 53.3146 56.313L44.6881 47.9079L42.2834 36.6814L50.7158 34.8752C51.1631 34.7794 51.5593 34.5345 51.8172 34.1944C52.0751 33.8543 52.1737 33.4468 52.0912 33.0616C52.0087 32.6764 51.7519 32.3451 51.3773 32.1405C51.0026 31.9359 50.5409 31.8747 50.0936 31.9705Z M42.9594 26.6621C43.5007 29.1892 41.8254 31.6906 39.2174 32.2492C36.6095 32.8079 34.0565 31.2121 33.5152 28.685C32.9739 26.158 34.6492 23.6565 37.2572 23.0979C39.8651 22.5392 42.4181 24.135 42.9594 26.6621Z M10.0414 53.5434L9.14554 49.3609L24.3289 35.9718L25.242 40.2347L13.5327 50.4401L13.6016 50.7618L28.4551 55.2354L29.3769 59.5385L10.0414 53.5434Z M59.3387 48.6622L71.048 38.4568L70.9791 38.135L56.1256 33.6615L55.2038 29.3583L74.5393 35.3535L75.4352 39.536L60.2518 52.9251L59.3387 48.6622Z" fill="#E3E3E3"/>
</svg>
