<svg viewBox="0 0 236 14" fill="none" xmlns="http://www.w3.org/2000/svg">
	<path d="M3.36523 3.14844C14.8328 3.14844 14.8328 10.8766 26.3003 10.8766C37.7678 10.8766 37.7678 3.14844 49.2353 3.14844C60.7029 3.14844 60.7029 10.8766 72.1435 10.8766C83.6114 10.8766 83.6114 3.14844 95.0517 3.14844C106.519 3.14844 106.52 10.8766 117.96 10.8766C129.428 10.8766 129.428 3.14844 140.895 3.14844C152.362 3.14844 152.362 10.8766 163.83 10.8766C175.297 10.8766 175.297 3.14844 186.765 3.14844C198.233 3.14844 198.233 10.8766 209.7 10.8766C221.167 10.8766 221.167 3.14844 232.635 3.14844" stroke="#6e829b" stroke-width="3" stroke-miterlimit="10" stroke-linecap="round"/>
</svg>